<?xml version="1.0" encoding="utf-8"?>
<!-- Generator: Adobe Illustrator 19.0.0, SVG Export Plug-In . SVG Version: 6.00 Build 0)  -->
<svg version="1.1" id="Laag_1" xmlns="http://www.w3.org/2000/svg" xmlns:xlink="http://www.w3.org/1999/xlink" x="0px" y="0px"
	 viewBox="-467 269 24 24" style="enable-background:new -467 269 24 24;" xml:space="preserve">
<g>
	<circle cx="-455" cy="281.3" r="1.7"/>
	<path d="M-445.3,279.6l-2.4-0.5c-0.1-0.5-0.3-1-0.6-1.4l1.4-2.1c0.1-0.2,0.1-0.5-0.1-0.6l-1.7-1.7c-0.2-0.2-0.4-0.2-0.6-0.1
		l-2.1,1.4c-0.5-0.2-0.9-0.4-1.4-0.6l-0.5-2.4c0-0.2-0.3-0.4-0.5-0.4h-2.5c-0.2,0-0.5,0.2-0.5,0.4l-0.5,2.4c-0.5,0.1-1,0.3-1.4,0.6
		l-2-1.4c-0.2-0.1-0.5-0.1-0.6,0.1l-1.7,1.7c-0.2,0.2-0.2,0.4-0.1,0.6l1.4,2c-0.2,0.4-0.4,0.9-0.6,1.4l-2.4,0.5
		c-0.2,0-0.4,0.3-0.4,0.5v2.5c0,0.2,0.2,0.5,0.4,0.5l2.4,0.5c0.1,0.5,0.3,1,0.6,1.4l-1.4,2c-0.1,0.2-0.1,0.5,0.1,0.6l1.7,1.7
		c0.2,0.2,0.4,0.2,0.6,0.1l2-1.4c0.4,0.2,0.9,0.4,1.4,0.6l0.5,2.4c0,0.2,0.3,0.4,0.5,0.4h2.5c0.2,0,0.5-0.2,0.5-0.4l0.5-2.4
		c0.5-0.1,1-0.3,1.4-0.6l2,1.4c0.2,0.1,0.5,0.1,0.6-0.1l1.7-1.7c0.2-0.2,0.2-0.4,0.1-0.6l-1.4-2c0.2-0.5,0.4-0.9,0.6-1.4l2.4-0.5
		c0.2,0,0.4-0.3,0.4-0.5v-2.5C-444.9,279.9-445.1,279.7-445.3,279.6z M-455,285.5c-2.3,0-4.2-1.9-4.2-4.2c0-2.3,1.9-4.2,4.2-4.2
		c2.3,0,4.2,1.9,4.2,4.2C-450.8,283.7-452.7,285.5-455,285.5z"/>
</g>
</svg>
