<?xml version="1.0" encoding="utf-8"?>
<!-- Generator: Adobe Illustrator 19.0.0, SVG Export Plug-In . SVG Version: 6.00 Build 0)  -->
<svg version="1.1" id="Laag_1" xmlns="http://www.w3.org/2000/svg" xmlns:xlink="http://www.w3.org/1999/xlink" x="0px" y="0px"
	 viewBox="-467 269 24 24" style="enable-background:new -467 269 24 24;" xml:space="preserve">
<style type="text/css">
	.st0{fill:#010101;}
</style>
<path class="st0" d="M-457.3,281.4c0,1.3,1,2.3,2.3,2.3c1.3,0,2.3-1,2.3-2.3v0c-0.2,0.3-0.6,0.4-1,0.4c-0.8,0-1.4-0.6-1.4-1.4
	c0-0.5,0.3-1,0.8-1.2c-0.2-0.1-0.5-0.1-0.8-0.1C-456.3,279.1-457.3,280.1-457.3,281.4z M-446.2,280.1c-1.4-1.8-5-4.9-8.8-4.9
	c-3.8,0-7.4,3.1-8.8,4.9c-0.3,0.4-0.5,0.9-0.5,1.3c0,0.5,0.2,0.9,0.5,1.3c1.4,1.8,5,4.9,8.8,4.9c3.8,0,7.4-3.1,8.8-4.9
	c0.3-0.4,0.5-0.9,0.5-1.3C-445.7,280.9-445.9,280.5-446.2,280.1z M-455,285.3c-2.1,0-3.9-1.7-3.9-3.9c0-2.1,1.7-3.9,3.9-3.9
	c2.1,0,3.9,1.7,3.9,3.9C-451.1,283.5-452.9,285.3-455,285.3z"/>
</svg>
