<?xml version="1.0" encoding="utf-8"?>
<!-- Generator: Adobe Illustrator 19.0.0, SVG Export Plug-In . SVG Version: 6.00 Build 0)  -->
<svg version="1.1" id="Laag_1" xmlns="http://www.w3.org/2000/svg" xmlns:xlink="http://www.w3.org/1999/xlink" x="0px" y="0px"
	 viewBox="-467 269 24 24" style="enable-background:new -467 269 24 24;" xml:space="preserve">
<path d="M-450.8,279.8c0-0.2-0.1-0.4-0.2-0.5c-0.1-0.1-0.3-0.2-0.5-0.2c-1.3,0-2.5,0.2-3.6,0.6c-1.1,0.4-2.1,0.9-2.9,1.5
	c-0.9,0.6-1.7,1.5-2.7,2.5c-0.1,0.2-0.2,0.3-0.2,0.5c0,0.2,0.1,0.4,0.2,0.5c0.1,0.1,0.3,0.2,0.5,0.2c0.2,0,0.3-0.1,0.5-0.2
	c0.2-0.2,0.5-0.4,0.8-0.8c0.4-0.4,0.6-0.6,0.8-0.7c1-0.9,2-1.6,3-2c1-0.4,2.2-0.6,3.5-0.6c0.2,0,0.4-0.1,0.5-0.2
	C-450.8,280.2-450.8,280-450.8,279.8z M-445,277.6c0,0.7-0.1,1.4-0.2,2.2c-0.3,1.7-1,3.1-2.1,4.3c-1,1.2-2.4,2.2-4,3
	c-1.6,0.8-3.3,1.2-4.9,1.2c-1.1,0-2.2-0.2-3.2-0.5c-0.1,0-0.4-0.2-1-0.5c-0.5-0.3-0.9-0.4-1.1-0.4c-0.1,0-0.3,0.1-0.4,0.4
	s-0.3,0.5-0.5,0.8c-0.2,0.3-0.4,0.5-0.6,0.8c-0.2,0.2-0.5,0.4-0.7,0.4c-0.2,0-0.4,0-0.6-0.1s-0.3-0.2-0.3-0.3
	c-0.1-0.1-0.2-0.3-0.3-0.5c0,0,0-0.1-0.1-0.1c0-0.1-0.1-0.1-0.1-0.1s0-0.1,0-0.1c0,0,0-0.1,0-0.2c0-0.3,0.1-0.5,0.3-0.8
	c0.2-0.3,0.5-0.5,0.8-0.7c0.3-0.2,0.5-0.4,0.8-0.6c0.2-0.2,0.3-0.4,0.3-0.5c0,0-0.1-0.2-0.2-0.4c-0.1-0.3-0.2-0.4-0.2-0.5
	c-0.1-0.4-0.1-0.8-0.1-1.2c0-0.9,0.2-1.7,0.5-2.5s0.8-1.5,1.3-2.1s1.2-1.1,1.9-1.6s1.5-0.8,2.3-1.1c0.4-0.1,1-0.2,1.6-0.3
	s1.3-0.1,2-0.1c0.7,0,1.3,0,2-0.1c0.7,0,1.3-0.1,1.8-0.3c0.6-0.1,1-0.4,1.3-0.6l0.3-0.3l0.3-0.3l0.3-0.2l0.4-0.2l0.5-0.1
	c0.3,0,0.6,0.2,0.8,0.5s0.4,0.8,0.5,1.3c0.1,0.5,0.2,1,0.3,1.4S-445,277.3-445,277.6z"/>
</svg>
